<?xml version="1.0" standalone="no"?><!DOCTYPE svg PUBLIC "-//W3C//DTD SVG 1.1//EN" "http://www.w3.org/Graphics/SVG/1.1/DTD/svg11.dtd"><svg t="1770721275803" class="icon" viewBox="0 0 1024 1024" version="1.1" xmlns="http://www.w3.org/2000/svg" p-id="3266" xmlns:xlink="http://www.w3.org/1999/xlink" width="200" height="200"><path d="M844.8 393.5h-2.6c-19.1 0-34.8 5.5-50 14.9-13.2-38.6-46.9-66.4-90.3-66.4-19.1 0-37.4 5.5-52.5 14.9-13.2-38.6-46.9-66.4-90.3-66.4-16.9 0-32.6 4.2-46.5 11.7v-99.3c0-54.1-40.9-98-95.4-98-54.5 0-98.7 43.9-98.7 98V583l-59.9-59.7c-38.5-38.3-106.7-32.8-139.6 0s-54.3 98.8-7.3 145.8l275.6 273.8c5.7 5.6 11.9 10.3 18.5 14.3 50.2 41 107.8 65.2 229.6 65.2 278.1 0 303.9-150 303.9-335.1V491.4c-0.1-54.1-40-97.9-94.5-97.9z m42.4 293.8c0 156.6-0.7 283.6-251.9 283.6-106.4 0-170.3-23.7-218.7-71.8L155.7 640c-23.1-23.1-17.3-52.6 1.6-71.5 18.9-18.9 53.6-19.5 71.8-1.4l141.3 140.4V213c0-25.6 20.9-46.4 46.7-46.4 25.8 0 43.5 20.8 43.5 46.4v314.5h0.5c-0.4 1.7-0.5 3.4-0.5 5.2 0 14.2 11.6 25.8 26 25.8 14.3 0 26-11.5 26-25.8 0-1.8-0.2-3.5-0.5-5.2h0.5V398.6c0-25.6 18.7-46.4 44.5-46.4 0 0 45.7-0.6 45.7 46.4v170.1h0.5c-0.4 1.7-0.5 3.4-0.5 5.2 0 14.2 11.6 25.8 26 25.8 14.3 0 26-11.5 26-25.8 0-1.8-0.2-3.5-0.5-5.2h0.5V450.2c0-25.6 18.4-46.4 44.2-46.4 0 0 46.7 2.9 46.7 46.4v149.5h0.5c-0.4 1.7-0.5 3.4-0.5 5.2 0 14.2 11.6 25.8 26 25.8 14.3 0 25.3-11.5 25.3-25.8 0-1.8-0.2-3.5-0.5-5.2h0.5V497.6c0-25.6 19.3-46.4 45.1-46.4 0 0 45.3-1.8 45.3 46.4v189.7zM279.9 348.7v-86.6c-8.2-18.5-12.9-38.9-12.9-60.4C267 119.6 333.5 53 415.6 53s148.7 66.5 148.7 148.7c0 11.2-1.3 22.1-3.7 32.6 18.7 0.7 35.6 8.5 47.8 21 4.8-17.1 7.6-34.9 7.6-53.5C616 91 526.3 1.3 415.6 1.3 305 1.3 215.3 91 215.3 201.7c0 58.2 25 110.4 64.6 147z m0 0" p-id="3267" fill="#bfbfbf"></path></svg>